<svg width="32" height="32" viewBox="0 0 32 32" fill="none" xmlns="http://www.w3.org/2000/svg">
  <circle cx="16" cy="16" r="16" fill="#B83DBA"/>
  <g transform="translate(6, 6)">
    <!-- Eyelashes -->
    <path d="M4 3L4.5 1.5M6 2.5L6.5 1M8 2L8.5 0.5M10 2L10.5 0.5M12 2.5L12.5 1M14 3L14.5 1.5M16 4L16.5 2.5" stroke="white" stroke-width="1" stroke-linecap="round"/>
    
    <!-- Eye outline -->
    <path d="M2 10C2 10 5 4 10 4C15 4 18 10 18 10C18 10 15 16 10 16C5 16 2 10 2 10Z" stroke="white" stroke-width="2" fill="none"/>
    
    <!-- Spiral -->
    <path d="M10 6.5C11.5 6.5 13 8 13 10C13 12 11.5 13.5 10 13.5C8.5 13.5 7 12 7 10C7 8.5 8 7.5 9 7.5C9.5 7.5 10 8 10 8.5C10 9 9.8 9.2 9.5 9.2C9.3 9.2 9.2 9 9.2 8.8" stroke="white" stroke-width="1.5" fill="none" stroke-linecap="round"/>
  </g>
</svg>