<svg width="32" height="32" viewBox="0 0 32 32" fill="none" xmlns="http://www.w3.org/2000/svg">
  <!-- Eye outline -->
  <path d="M6 16C6 16 10 8 16 8C22 8 26 16 26 16C26 16 22 24 16 24C10 24 6 16 6 16Z" stroke="white" stroke-width="2" fill="none"/>
  
  <!-- Spiral iris/pupil -->
  <path d="M16 12C16 12 14 14 16 16C18 18 20 16 20 16C20 16 18 14 16 12Z" fill="white"/>
  <path d="M16 12C16 12 14 14 16 16C18 18 20 16 20 16C20 16 18 14 16 12Z" fill="white" opacity="0.8"/>
  
  <!-- Upper eyelashes/eyebrow -->
  <path d="M8 10L10 8M12 9L14 7M16 9L18 7M20 9L22 7M24 10L26 8" stroke="white" stroke-width="2" stroke-linecap="round"/>
</svg> 